<?xml version="1.0" encoding="UTF-8" standalone="no"?>
<!-- Created with Inkscape (http://www.inkscape.org/) -->

<svg
   xmlns:dc="http://purl.org/dc/elements/1.1/"
   xmlns:cc="http://creativecommons.org/ns#"
   xmlns:rdf="http://www.w3.org/1999/02/22-rdf-syntax-ns#"
   xmlns:svg="http://www.w3.org/2000/svg"
   xmlns="http://www.w3.org/2000/svg"
   xmlns:sodipodi="http://sodipodi.sourceforge.net/DTD/sodipodi-0.dtd"
   xmlns:inkscape="http://www.inkscape.org/namespaces/inkscape"
   width="210mm"
   height="202.7464mm"
   viewBox="0 0 744.09449 718.39275"
   id="svg2"
   version="1.1"
   inkscape:version="0.91 r13725"
   sodipodi:docname="icon.svg">
  <defs
     id="defs4" />
  <sodipodi:namedview
     id="base"
     pagecolor="#ffffff"
     bordercolor="#666666"
     borderopacity="1.0"
     inkscape:pageopacity="0.0"
     inkscape:pageshadow="2"
     inkscape:zoom="0.50000001"
     inkscape:cx="325.38263"
     inkscape:cy="319.51928"
     inkscape:document-units="px"
     inkscape:current-layer="g4269"
     showgrid="false"
     inkscape:window-width="1362"
     inkscape:window-height="742"
     inkscape:window-x="0"
     inkscape:window-y="22"
     inkscape:window-maximized="1"
     inkscape:snap-others="false"
     inkscape:object-paths="true"
     inkscape:object-nodes="true"
     inkscape:snap-smooth-nodes="true"
     inkscape:snap-midpoints="false"
     inkscape:snap-intersection-paths="true"
     inkscape:snap-bbox="true"
     inkscape:snap-text-baseline="true"
     inkscape:snap-page="true"
     inkscape:bbox-paths="false"
     inkscape:snap-nodes="false"
     inkscape:bbox-nodes="true"
     fit-margin-top="0"
     fit-margin-left="0"
     fit-margin-right="0"
     fit-margin-bottom="0" />
  <metadata
     id="metadata7">
    <rdf:RDF>
      <cc:Work
         rdf:about="">
        <dc:format>image/svg+xml</dc:format>
        <dc:type
           rdf:resource="http://purl.org/dc/dcmitype/StillImage" />
        <dc:title></dc:title>
      </cc:Work>
    </rdf:RDF>
  </metadata>
  <g
     inkscape:groupmode="layer"
     id="layer7"
     inkscape:label="Logo"
     transform="translate(6.6229438e-6,1.5035124e-6)">
    <g
       id="g4269"
       transform="matrix(3.0849672,0,0,3.0849672,-24.365539,-43.96078)"
       inkscape:export-filename="/home/alexis/Documents/Image/Vinyl_Logo/name_showroom.png"
       inkscape:export-xdpi="90"
       inkscape:export-ydpi="90">
      <g
         inkscape:export-ydpi="321.76999"
         inkscape:export-xdpi="321.76999"
         transform="matrix(0.24956844,0,0,0.24956844,-252.98499,17.869999)"
         id="g4221"
         style="display:inline"
         inkscape:export-filename="/home/alexis/Documents/Image/Vinyl_Logo/1024/iconbw-bgdark.png">
        <path
           id="path4730"
           style="opacity:1;fill:#752882;fill-opacity:1;fill-rule:evenodd;stroke:#ffffff;stroke-width:5.204813;stroke-linecap:butt;stroke-linejoin:miter;stroke-miterlimit:4;stroke-dasharray:none;stroke-opacity:1"
           d="m 1528.5715,-11.902634 c 106.315,0 212.63,15.7223211 270.1182,47.166962 17.3244,9.47601 30.2145,20.37985 37.3342,32.711511 53.2168,92.174361 -123.8486,423.665171 -252.1761,511.162781 -18.3918,-18.85667 -37.0662,-41.07632 -55.2792,-65.49798 63.4283,-84.7586 121.8526,-196.08815 146.499,-283.99803 -139.9473,-67.35395 -515.5604,-54.95186 -568.7773,37.22258 -7.1196,12.3315 -10.1175,28.94635 -9.6619,48.68736 1.5119,65.50855 41.0536,165.44163 94.2113,257.51348 -104.8133,-181.54198 -174.6889,-383.25532 -128.1052,-463.94065 46.5837,-80.685333 256.2103,-121.028004 465.837,-121.028014 z"
           inkscape:connector-curvature="0"
           sodipodi:nodetypes="csscccsscscc"
           inkscape:export-xdpi="92.160004"
           inkscape:export-ydpi="92.160004" />
        <path
           id="path5451"
           style="display:inline;opacity:1;fill:#ca7dd7;fill-opacity:1;fill-rule:evenodd;stroke:#ffffff;stroke-width:5.204813;stroke-linecap:butt;stroke-linejoin:miter;stroke-miterlimit:4;stroke-dasharray:none;stroke-opacity:1"
           d="m 1646.033,310.30513 c -105.0818,-12.56313 -230.7685,-7.49999 -319.2568,15.11958 11.6443,154.87607 210.1905,473.96368 316.6241,473.96368 l 0,0 c 14.2393,0 30.1273,-5.71124 46.9959,-15.97649 55.976,-34.06381 122.7495,-118.27426 175.9071,-210.34588 -104.8133,181.542 -244.5644,342.91268 -337.7317,342.91268 -93.1674,0 -232.9185,-161.37066 -337.7319,-342.91267 -53.1577,-92.07185 -92.6994,-192.00493 -94.2113,-257.51348 -0.4556,-19.74101 2.5423,-36.35586 9.6619,-48.68736 53.2169,-92.17444 428.83,-104.57653 568.7773,-37.22258 -7.1272,25.34266 -17.0398,52.64836 -29.0346,80.66252 z"
           inkscape:connector-curvature="0"
           sodipodi:nodetypes="ccccccccsscc"
           inkscape:export-xdpi="92.160004"
           inkscape:export-ydpi="92.160004" />
        <path
           id="path4721"
           style="opacity:1;fill:#000000;fill-opacity:1;fill-rule:evenodd;stroke:#ffffff;stroke-width:5.204813;stroke-linecap:butt;stroke-linejoin:miter;stroke-miterlimit:4;stroke-dasharray:none;stroke-opacity:1"
           d="m 1994.4085,109.12535 0,0 c 46.5837,80.68533 -23.2919,282.39867 -128.1052,463.94067 -69.1768,119.81775 -161.4125,226.32236 -222.903,226.32236 l 0,0 c -106.4583,0 -305.0719,-319.23569 -316.6282,-474.01757 25.5147,-6.44566 54.1178,-11.51388 84.391,-15.09865 41.6685,97.27709 108.8574,203.53046 172.6847,268.86646 128.3275,-87.49761 305.3929,-418.98842 252.1761,-511.162781 -7.1197,-12.331661 -20.0098,-23.235501 -37.3342,-32.711511 -57.4882,-31.4446409 -163.8032,-47.166962 -270.1182,-47.166962 l 0,0 m 0,0 c 209.6267,-10e-6 419.2533,40.342651 465.837,121.027984"
           inkscape:connector-curvature="0"
           sodipodi:nodetypes="ccccccccsscccc"
           inkscape:export-xdpi="92.160004"
           inkscape:export-ydpi="92.160004" />
      </g>
    </g>
  </g>
</svg>
