<?xml version="1.0" encoding="UTF-8" standalone="no"?>
<svg
   xmlns:dc="http://purl.org/dc/elements/1.1/"
   xmlns:cc="http://creativecommons.org/ns#"
   xmlns:rdf="http://www.w3.org/1999/02/22-rdf-syntax-ns#"
   xmlns:svg="http://www.w3.org/2000/svg"
   xmlns="http://www.w3.org/2000/svg"
   xmlns:sodipodi="http://sodipodi.sourceforge.net/DTD/sodipodi-0.dtd"
   xmlns:inkscape="http://www.inkscape.org/namespaces/inkscape"
   height="24"
   width="24"
   version="1.1"
   id="svg-icons"
   inkscape:version="0.91 r13725"
   sodipodi:docname="svg.svg">
  <metadata
     id="metadata3391">
    <rdf:RDF>
      <cc:Work
         rdf:about="">
        <dc:format>image/svg+xml</dc:format>
        <dc:type
           rdf:resource="http://purl.org/dc/dcmitype/StillImage" />
      </cc:Work>
    </rdf:RDF>
  </metadata>
  <defs
     id="defs4237" />
  <sodipodi:namedview
     pagecolor="#ffffff"
     bordercolor="#666666"
     borderopacity="1"
     objecttolerance="10"
     gridtolerance="10"
     guidetolerance="10"
     inkscape:pageopacity="0"
     inkscape:pageshadow="2"
     inkscape:window-width="1362"
     inkscape:window-height="742"
     id="namedview4235"
     showgrid="false"
     inkscape:zoom="16"
     inkscape:cx="6.1608386"
     inkscape:cy="6.5175079"
     inkscape:window-x="0"
     inkscape:window-y="22"
     inkscape:window-maximized="1"
     inkscape:current-layer="svg-icons" />
  <path
     id="path4215"
     style="fill:#ffffff;fill-opacity:1"
     d="m 5.3670066,19.878442 c -0.8922845,0 -1.6142238,0.730051 -1.6142238,1.622335 0,0.892284 0.7219393,1.622335 1.6142238,1.622335 0.8922845,0 1.6223355,-0.730051 1.6223355,-1.622335 0,-0.892284 -0.730051,-1.622335 -1.6223355,-1.622335 z m 8.1116774,0 c -0.892285,0 -1.614223,0.730051 -1.614223,1.622335 0,0.892284 0.721938,1.622335 1.614223,1.622335 0.892285,0 1.622335,-0.730051 1.622335,-1.622335 0,-0.892284 -0.73005,-1.622335 -1.622335,-1.622335 z M 16.596596,5.6406634 c 0.327578,-0.567411 0.128397,-1.294461 -0.438987,-1.622092 L 11.002553,1.0354213 C 10.435168,0.7078719 9.7029263,0.9040933 9.3753462,1.4715051 l -4.0686879,7.0486423 -1.3908814,0 -0.7636384,-1.622336 -2.65213818,0 -8e-8,1.622336 1.62233546,0 2.919887,6.1582226 -1.0947596,1.987929 c -0.1297869,0.227126 -0.2027919,0.494 -0.2027919,0.777909 0,0.892285 0.7300509,1.622336 1.6223354,1.622336 l 9.7340124,0 0,-1.622336 -9.3933853,0 c -0.1135635,0 -0.2027919,-0.08923 -0.2027919,-0.202791 l 0.023765,-0.09661 0.7303678,-1.322933 6.0441494,0 c 0.608376,0 1.143747,-0.332011 1.419544,-0.834935 l 2.904044,-5.2646406 c 0.0649,-0.113563 0.09664,-0.251867 0.09664,-0.389766 0,-0.446142 -0.365026,-0.810275 -0.811168,-0.811168 l -0.976274,0 z m -12.2197844,4.06898 10.7067814,0 -2.452516,4.4455236 -0.0032,0 c -0.04066,0.07381 -0.114312,0.129949 -0.224973,0.129949 l -5.8508639,0 c -0.045294,-0.07301 0.015391,0.0081 -0.077631,-0.15688 l 0.050698,0.09669 -2.148327,-4.5184476 -5e-6,0 0,0 m 2.3052443,-1.186412 3.1293355,-5.421359 5.1580341,2.977959 -1.409757,2.443156 z" />
  <g
     id="g4226"
     style="stroke:#ffffff;stroke-opacity:1;stroke-width:0.2;stroke-miterlimit:4;stroke-dasharray:none">
    <path
       id="path4213"
       d="m 7.9034901,7.4206904 3.0483079,1.759909"
       style="fill:#ffffff;fill-opacity:1;stroke:#ffffff;stroke-opacity:1;stroke-width:0.2;stroke-miterlimit:4;stroke-dasharray:none" />
    <path
       id="path4211"
       d="m 9.9924577,3.8025574 4.2795803,2.470817"
       style="fill:#ffffff;fill-opacity:1;stroke:#ffffff;stroke-opacity:1;stroke-width:0.2;stroke-miterlimit:4;stroke-dasharray:none" />
    <path
       id="path4209"
       d="M 9.6023124,4.4782604 12.98094,6.4288754"
       style="fill:#ffffff;fill-opacity:1;stroke:#ffffff;stroke-opacity:1;stroke-width:0.2;stroke-miterlimit:4;stroke-dasharray:none" />
    <path
       id="path4207"
       d="m 9.4072472,4.8161124 3.3786278,1.950614"
       style="fill:#ffffff;fill-opacity:1;stroke:#ffffff;stroke-opacity:1;stroke-width:0.2;stroke-miterlimit:4;stroke-dasharray:none" />
    <path
       id="path4205"
       d="M 9.2121819,5.1539634 12.59081,7.1046594"
       style="fill:#ffffff;fill-opacity:1;stroke:#ffffff;stroke-opacity:1;stroke-width:0.2;stroke-miterlimit:4;stroke-dasharray:none" />
    <path
       id="path4203"
       d="m 8.9520942,5.6044854 3.3786278,1.950616"
       style="fill:#ffffff;fill-opacity:1;stroke:#ffffff;stroke-opacity:1;stroke-width:0.2;stroke-miterlimit:4;stroke-dasharray:none" />
    <path
       id="path4201"
       d="m 8.7245181,5.9986324 3.3786279,1.950615"
       style="fill:#ffffff;fill-opacity:1;stroke:#ffffff;stroke-opacity:1;stroke-width:0.2;stroke-miterlimit:4;stroke-dasharray:none" />
    <path
       id="path4199"
       d="m 8.5294536,6.3364834 3.3786274,1.950697"
       style="fill:#ffffff;fill-opacity:1;stroke:#ffffff;stroke-opacity:1;stroke-width:0.2;stroke-miterlimit:4;stroke-dasharray:none" />
    <path
       id="path4197"
       d="m 8.3668985,6.6180394 3.3786285,1.950615"
       style="fill:#ffffff;fill-opacity:1;stroke:#ffffff;stroke-opacity:1;stroke-width:0.2;stroke-miterlimit:4;stroke-dasharray:none" />
    <path
       id="path4195"
       d="m 8.0417898,7.1811524 3.3786282,1.950615"
       style="fill:#ffffff;fill-opacity:1;stroke:#ffffff;stroke-opacity:1;stroke-width:0.2;stroke-miterlimit:4;stroke-dasharray:none" />
    <path
       id="path4193"
       d="m 9.8624135,4.0277384 4.2795825,2.470816"
       style="fill:#ffffff;fill-opacity:1;stroke:#ffffff;stroke-opacity:1;stroke-width:0.2;stroke-miterlimit:4;stroke-dasharray:none" />
    <path
       id="path4191"
       d="m 7.7817028,7.6315944 2.6825882,1.548762"
       style="fill:#ffffff;fill-opacity:1;stroke:#ffffff;stroke-opacity:1;stroke-width:0.2;stroke-miterlimit:4;stroke-dasharray:none" />
    <path
       id="path4189"
       d="m 7.6516594,7.8568554 2.291953,1.323257"
       style="fill:#ffffff;fill-opacity:1;stroke:#ffffff;stroke-opacity:1;stroke-width:0.2;stroke-miterlimit:4;stroke-dasharray:none" />
    <path
       id="path4187"
       d="M 9.0335209,9.1801944 7.424083,8.2510014"
       style="fill:#ffffff;fill-opacity:1;stroke:#ffffff;stroke-opacity:1;stroke-width:0.2;stroke-miterlimit:4;stroke-dasharray:none" />
  </g>
  <g
     id="g4245">
    <path
       d="m 23.5,2.9717454 q 0,-0.09385 -0.05833,-0.162314 -0.05579,-0.06814 -0.154698,-0.06814 l -1.179262,0 q 0.228244,-0.114132 0.35251,-0.329659 0.121731,-0.218123 0.121731,-0.499598 0,-0.2637918 -0.09891,-0.4793191 -0.101442,-0.218123 -0.27643,-0.3576438 -0.177523,-0.1419544 -0.410839,-0.2180419 -0.235852,-0.07625 -0.50721,-0.07625 -0.266284,0 -0.502136,0.070571 -0.235853,0.068138 -0.418448,0.2003585 -0.185132,0.1318958 -0.291646,0.3449085 -0.10905,0.210498 -0.10905,0.4742086 0,0.2942102 0.124266,0.5224732 0.121731,0.225667 0.365191,0.347423 l -0.225708,0 q -0.09891,0 -0.154699,0.0584 -0.05833,0.0584 -0.05833,0.172455 0,0.09385 0.05579,0.162314 0.05579,0.0657 0.157234,0.0657 l 3.055937,0 q 0.09891,0 0.154698,-0.06814 0.05833,-0.06814 0.05833,-0.1598 z M 22.267481,1.9750641 q 0,0.2003583 -0.08369,0.3525333 -0.08369,0.149661 -0.225708,0.238402 -0.14202,0.08623 -0.309398,0.129301 -0.169915,0.04299 -0.362654,0.04299 -1.006811,0 -1.006811,-0.7861841 0.0025,-0.1598 0.06594,-0.2840709 0.0634,-0.1267855 0.162306,-0.2053876 0.09891,-0.078683 0.233318,-0.1293813 0.13441,-0.053537 0.266284,-0.073816 0.131875,-0.020279 0.271358,-0.020279 0.182594,0 0.349974,0.040559 0.167379,0.038125 0.317006,0.1191605 0.147091,0.081198 0.235852,0.2307772 0.08622,0.1471459 0.08622,0.3449085 z"
       style="fill:#ffffff;fill-opacity:1"
       id="path4183" />
    <path
       d="m 22.581951,5.1752844 q 0,-0.545267 -0.494529,-0.781154 l 0.243461,0 q 0.0989,0 0.154698,-0.06327 0.05326,-0.0657 0.05326,-0.157285 0,-0.09126 -0.05579,-0.159719 -0.05833,-0.07138 -0.157235,-0.07138 l -1.478515,0 q -0.44888,0 -0.664445,0.263791 -0.215564,0.261196 -0.215564,0.725265 0,0.542753 0.220636,0.935845 0.04058,0.07057 0.116659,0.07057 0.06594,0 0.12173,-0.04786 0.05326,-0.04786 0.05326,-0.114132 0,-0.03569 -0.01268,-0.06084 -0.05833,-0.129381 -0.0913,-0.218122 -0.03296,-0.08874 -0.06594,-0.243432 -0.03296,-0.15469 -0.03296,-0.309379 0,-0.258682 0.129339,-0.403232 0.129338,-0.144631 0.400695,-0.144631 l 0.276429,0 q 0,0.281556 0.0076,0.481915 0.0076,0.197762 0.0279,0.385467 0.01776,0.187623 0.05579,0.309379 0.0355,0.121756 0.09383,0.223152 0.05579,0.101477 0.139482,0.157286 0.08115,0.05597 0.190203,0.08623 0.109051,0.03082 0.253605,0.03082 0.349974,0 0.540178,-0.248541 0.190203,-0.248542 0.190203,-0.646663 z m -0.304326,-0.04786 q 0,0.235806 -0.106513,0.372731 -0.10905,0.137007 -0.339831,0.137007 -0.126802,0 -0.207955,-0.03569 -0.08115,-0.03813 -0.136947,-0.114131 -0.05833,-0.07625 -0.08623,-0.228263 -0.03044,-0.152175 -0.04058,-0.349938 -0.01268,-0.197843 -0.01268,-0.512333 l 0.07608,0 q 0.372798,0 0.613723,0.220638 0.240924,0.218123 0.240924,0.509818 z"
       style="fill:#ffffff;fill-opacity:1"
       id="path4179" />
    <path
       id="path4177"
       d="m 22.536301,8.6981034 0,-2.092164 q 0,-0.09896 -0.06086,-0.152175 -0.06086,-0.05354 -0.144554,-0.05354 -0.08369,0 -0.142019,0.05354 -0.06086,0.05354 -0.06086,0.152175 l 0,1.787895 -2.804867,-1.952805 q -0.09383,-0.06327 -0.185133,-0.06327 -0.09891,0 -0.162306,0.06814 -0.0634,0.06814 -0.0634,0.180079 l 0,2.132803 q 0,0.09637 0.06086,0.14958 0.05833,0.05354 0.139482,0.05354 0.08369,0 0.147091,-0.05354 0.06086,-0.05354 0.06086,-0.14958 l 0,-1.780351 2.802332,1.952805 q 0.08369,0.05597 0.172451,0.05597 0.101442,0 0.172451,-0.07381 0.06847,-0.07381 0.06847,-0.215608 z"
       style="fill:#ffffff;fill-opacity:1" />
    <path
       id="path4175"
       d="m 22.571811,9.8976574 0,-0.149579 q 0,-0.09134 -0.0051,-0.147064 -0.0051,-0.05841 -0.02283,-0.114131 -0.01775,-0.05841 -0.05579,-0.08623 -0.04058,-0.02758 -0.103978,-0.02758 -0.07101,0 -0.124266,0.04785 -0.05326,0.04786 -0.05326,0.131815 l 0,0.01541 0.0076,0.172454 0,0.02758 q 0,0.1598 -0.114122,0.2332906 -0.116658,0.07381 -0.377871,0.07381 l -1.382146,0 0,-0.4666636 q 0,-0.167345 -0.144555,-0.167345 -0.06847,0 -0.111586,0.043 -0.04311,0.04056 -0.04311,0.124272 l 0,0.4666636 -0.735453,0 q -0.08876,0 -0.134411,0.0503 -0.04818,0.0503 -0.04818,0.126786 0,0.0812 0.05833,0.14966 0.05833,0.06571 0.139481,0.07057 l 0.720238,0.06084 0,0.311894 q 0,0.08371 0.04311,0.126785 0.04058,0.04299 0.106514,0.04299 0.06847,0 0.10905,-0.04299 0.04058,-0.04543 0.04058,-0.1293 l 0,-0.309379 1.460764,0 q 0.393087,0 0.58329,-0.172455 0.187668,-0.172454 0.187668,-0.4641496 z"
       style="fill:#ffffff;fill-opacity:1" />
    <path
       id="path4173"
       d="m 22.536301,12.332297 q 0,-0.09385 -0.05579,-0.162315 -0.05579,-0.07057 -0.157235,-0.07057 l -1.306063,0 q -0.296718,0 -0.474242,-0.187705 -0.177523,-0.190218 -0.177523,-0.532531 0,-0.0812 -0.05326,-0.124271 -0.05579,-0.04299 -0.131874,-0.04299 -0.08115,0 -0.142019,0.04786 -0.06086,0.04543 -0.06086,0.126785 0,0.268821 0.159772,0.461636 0.157234,0.190138 0.393086,0.253571 l -0.304326,0 q -0.09637,0 -0.149626,0.06814 -0.05579,0.06571 -0.05579,0.159719 0,0.09385 0.05579,0.162315 0.05326,0.06814 0.154699,0.06814 l 2.092238,0 q 0.101443,0 0.157236,-0.06571 0.05579,-0.06571 0.05579,-0.1598 z"
       style="fill:#ffffff;fill-opacity:1" />
    <path
       d="m 22.58195,14.53835 q 0,-0.545267 -0.494529,-0.781155 l 0.243461,0 q 0.0989,0 0.154698,-0.06327 0.05326,-0.06571 0.05326,-0.157285 0,-0.09126 -0.05579,-0.159719 -0.05833,-0.07138 -0.157235,-0.07138 l -1.478515,0 q -0.44888,0 -0.664445,0.263791 -0.215564,0.261197 -0.215564,0.725265 0,0.542753 0.220636,0.935845 0.04058,0.07138 0.116659,0.07138 0.06594,0 0.12173,-0.04786 0.05326,-0.04786 0.05326,-0.114131 0,-0.03569 -0.01268,-0.06084 -0.05833,-0.129301 -0.0913,-0.218124 -0.03296,-0.08874 -0.06594,-0.243431 -0.03296,-0.15469 -0.03296,-0.309379 0,-0.258681 0.129339,-0.403231 0.129338,-0.144551 0.400695,-0.144551 l 0.276429,0 q 0,0.281476 0.0076,0.481834 0.0076,0.197844 0.0279,0.385466 0.01776,0.187705 0.05579,0.30938 0.0355,0.121756 0.09383,0.223234 0.05579,0.101396 0.139482,0.157204 0.08115,0.05597 0.190203,0.08623 0.109051,0.03001 0.253605,0.03001 0.349974,0 0.540178,-0.248542 0.190203,-0.248542 0.190203,-0.646663 z m -0.304326,-0.04786 q 0,0.235806 -0.106513,0.372812 -0.10905,0.136925 -0.339831,0.136925 -0.126802,0 -0.207955,-0.0357 -0.08115,-0.03813 -0.136947,-0.114131 -0.05833,-0.07625 -0.08623,-0.228181 -0.03043,-0.152176 -0.04058,-0.35002 -0.01268,-0.197843 -0.01268,-0.512252 l 0.07608,0 q 0.372798,0 0.613723,0.220638 0.240924,0.218042 0.240924,0.509738 z"
       style="fill:#ffffff;fill-opacity:1"
       id="path4169" />
    <path
       id="path4167"
       d="m 22.5363,19.68172 q 0,-0.09637 -0.05579,-0.16483 -0.05833,-0.07057 -0.15977,-0.07057 l -1.237591,0 q -0.380407,0 -0.590899,-0.197844 -0.213028,-0.197762 -0.213028,-0.527502 0,-0.552811 0.699949,-0.552811 l 1.339033,0 q 0.101441,0 0.15977,-0.06571 0.05833,-0.06814 0.05833,-0.1598 0,-0.09377 -0.05833,-0.162315 -0.05833,-0.06814 -0.15977,-0.06814 l -1.222375,0 q -0.400695,0 -0.608651,-0.205388 -0.207956,-0.205469 -0.207956,-0.522473 0,-0.266225 0.162307,-0.410776 0.159771,-0.14455 0.47424,-0.14455 l 1.404971,0 q 0.101442,0 0.15977,-0.06571 0.05579,-0.06571 0.05579,-0.159801 0,-0.09385 -0.05579,-0.162314 -0.05833,-0.07138 -0.15977,-0.07138 l -1.387218,0 q -0.248533,0 -0.438737,0.07381 -0.190203,0.07138 -0.301789,0.200358 -0.114122,0.126867 -0.169915,0.289101 -0.05579,0.162314 -0.05579,0.355048 0,0.334768 0.149627,0.568142 0.147091,0.233291 0.441272,0.339797 -0.284038,0.07868 -0.436201,0.29924 -0.154698,0.220638 -0.154698,0.535128 0,0.276446 0.126802,0.491973 0.124266,0.215608 0.357582,0.324629 l -0.235851,0 q -0.09383,0 -0.147091,0.07057 -0.05326,0.06814 -0.05326,0.1598 0,0.09126 0.05833,0.162314 0.05579,0.06814 0.154699,0.06814 l 2.092239,0 q 0.101442,0 0.159771,-0.06571 0.05579,-0.06571 0.05579,-0.1598 z"
       style="fill:#ffffff;fill-opacity:1" />
    <path
       id="cart"
       d="m 22.59209,21.946418 q 0,-0.628898 -0.276429,-0.994086 -0.276429,-0.367702 -0.773494,-0.367702 -0.20542,0 -0.362655,0.06327 -0.157235,0.06084 -0.268821,0.187704 -0.114122,0.124271 -0.192739,0.278961 -0.07862,0.152175 -0.149627,0.372812 l -0.235852,0.730376 q -0.08623,0.258681 -0.202883,0.377842 -0.119195,0.116646 -0.317007,0.116646 -0.263749,0 -0.403231,-0.228263 -0.139483,-0.228181 -0.139483,-0.608619 0,-0.266307 0.08622,-0.499598 0.08369,-0.235888 0.185132,-0.390578 0.0355,-0.05354 0.0355,-0.111535 0,-0.0812 -0.0634,-0.139521 -0.0634,-0.05841 -0.142018,-0.05841 -0.07608,0 -0.126803,0.05841 -0.154699,0.172454 -0.268821,0.499598 -0.116658,0.324629 -0.116658,0.682193 0,0.365187 0.114122,0.656883 0.114122,0.2891 0.337294,0.461555 0.223172,0.169858 0.517353,0.169858 0.365191,0 0.573147,-0.197762 0.207956,-0.197844 0.344902,-0.601076 L 20.9893,21.677515 q 0.05579,-0.162315 0.103978,-0.26371 0.04818,-0.101477 0.119194,-0.18008 0.07101,-0.08112 0.167379,-0.114131 0.09383,-0.03569 0.228244,-0.03569 0.278966,0 0.426056,0.235806 0.147091,0.233291 0.147091,0.60359 0,0.568061 -0.334759,0.999196 -0.02028,0.02758 -0.02028,0.06327 0,0.07868 0.08622,0.157204 0.08623,0.07625 0.16738,0.07625 0.04818,0 0.07608,-0.03001 0.436199,-0.46918 0.436199,-1.242709 z"
       style="fill:#ffffff;fill-opacity:1" />
  </g>
</svg>
