<?xml version="1.0" encoding="UTF-8" standalone="no"?>
<!-- Created with Inkscape (http://www.inkscape.org/) -->

<svg
   xmlns:dc="http://purl.org/dc/elements/1.1/"
   xmlns:cc="http://creativecommons.org/ns#"
   xmlns:rdf="http://www.w3.org/1999/02/22-rdf-syntax-ns#"
   xmlns:svg="http://www.w3.org/2000/svg"
   xmlns="http://www.w3.org/2000/svg"
   xmlns:sodipodi="http://sodipodi.sourceforge.net/DTD/sodipodi-0.dtd"
   xmlns:inkscape="http://www.inkscape.org/namespaces/inkscape"
   width="209.69112mm"
   height="83.87645mm"
   viewBox="0 0 743.00002 297.20002"
   id="svg2"
   version="1.1"
   inkscape:version="0.91 r13725"
   sodipodi:docname="Vinyl-typo-color-black.svg">
  <defs
     id="defs4" />
  <sodipodi:namedview
     id="base"
     pagecolor="#ffffff"
     bordercolor="#666666"
     borderopacity="1.0"
     inkscape:pageopacity="0.0"
     inkscape:pageshadow="2"
     inkscape:zoom="1"
     inkscape:cx="156.28104"
     inkscape:cy="-38.841824"
     inkscape:document-units="px"
     inkscape:current-layer="layer7"
     showgrid="false"
     inkscape:window-width="1920"
     inkscape:window-height="1176"
     inkscape:window-x="1920"
     inkscape:window-y="24"
     inkscape:window-maximized="1"
     inkscape:snap-others="false"
     inkscape:object-paths="true"
     inkscape:object-nodes="true"
     inkscape:snap-smooth-nodes="true"
     inkscape:snap-midpoints="false"
     inkscape:snap-intersection-paths="true"
     inkscape:snap-bbox="true"
     inkscape:snap-text-baseline="true"
     inkscape:snap-page="true"
     inkscape:bbox-paths="false"
     inkscape:snap-nodes="false"
     inkscape:bbox-nodes="true"
     fit-margin-top="0"
     fit-margin-left="0"
     fit-margin-right="0"
     fit-margin-bottom="0"
     showborder="true" />
  <metadata
     id="metadata7">
    <rdf:RDF>
      <cc:Work
         rdf:about="">
        <dc:format>image/svg+xml</dc:format>
        <dc:type
           rdf:resource="http://purl.org/dc/dcmitype/StillImage" />
        <dc:title></dc:title>
      </cc:Work>
    </rdf:RDF>
  </metadata>
  <g
     inkscape:groupmode="layer"
     id="layer7"
     inkscape:label="Logo"
     transform="translate(0.13815071,10.336623)">
    <g
       id="g4269"
       transform="matrix(3.0849672,0,0,3.0849672,-24.365539,-43.96078)"
       inkscape:export-filename="/home/alexis/Documents/Image/Vinyl_Logo/name_showroom.png"
       inkscape:export-xdpi="90"
       inkscape:export-ydpi="90">
      <g
         inkscape:export-ydpi="321.76999"
         inkscape:export-xdpi="321.76999"
         transform="matrix(0.09606493,0,0,0.09606493,-92.52208,15.643425)"
         id="g4221"
         style="display:inline"
         inkscape:export-filename="/home/alexis/Documents/Image/Vinyl_Logo/1024/iconbw-bgdark.png">
        <path
           id="path4730"
           style="opacity:1;fill:#752882;fill-opacity:1;fill-rule:evenodd;stroke:#ffffff;stroke-width:5.204813;stroke-linecap:butt;stroke-linejoin:miter;stroke-miterlimit:4;stroke-dasharray:none;stroke-opacity:1"
           d="m 1528.5715,-11.902634 c 106.315,0 212.63,15.7223211 270.1182,47.166962 17.3244,9.47601 30.2145,20.37985 37.3342,32.711511 53.2168,92.174361 -123.8486,423.665171 -252.1761,511.162781 -18.3918,-18.85667 -37.0662,-41.07632 -55.2792,-65.49798 63.4283,-84.7586 121.8526,-196.08815 146.499,-283.99803 -139.9473,-67.35395 -515.5604,-54.95186 -568.7773,37.22258 -7.1196,12.3315 -10.1175,28.94635 -9.6619,48.68736 1.5119,65.50855 41.0536,165.44163 94.2113,257.51348 -104.8133,-181.54198 -174.6889,-383.25532 -128.1052,-463.94065 46.5837,-80.685333 256.2103,-121.028004 465.837,-121.028014 z"
           inkscape:connector-curvature="0"
           sodipodi:nodetypes="csscccsscscc"
           inkscape:export-xdpi="92.160004"
           inkscape:export-ydpi="92.160004" />
        <path
           id="path5451"
           style="display:inline;opacity:1;fill:#ca7dd7;fill-opacity:1;fill-rule:evenodd;stroke:#ffffff;stroke-width:5.204813;stroke-linecap:butt;stroke-linejoin:miter;stroke-miterlimit:4;stroke-dasharray:none;stroke-opacity:1"
           d="m 1646.033,310.30513 c -105.0818,-12.56313 -230.7685,-7.49999 -319.2568,15.11958 11.6443,154.87607 210.1905,473.96368 316.6241,473.96368 l 0,0 c 14.2393,0 30.1273,-5.71124 46.9959,-15.97649 55.976,-34.06381 122.7495,-118.27426 175.9071,-210.34588 -104.8133,181.542 -244.5644,342.91268 -337.7317,342.91268 -93.1674,0 -232.9185,-161.37066 -337.7319,-342.91267 -53.1577,-92.07185 -92.6994,-192.00493 -94.2113,-257.51348 -0.4556,-19.74101 2.5423,-36.35586 9.6619,-48.68736 53.2169,-92.17444 428.83,-104.57653 568.7773,-37.22258 -7.1272,25.34266 -17.0398,52.64836 -29.0346,80.66252 z"
           inkscape:connector-curvature="0"
           sodipodi:nodetypes="ccccccccsscc"
           inkscape:export-xdpi="92.160004"
           inkscape:export-ydpi="92.160004" />
        <path
           id="path4721"
           style="opacity:1;fill:#000000;fill-opacity:1;fill-rule:evenodd;stroke:#ffffff;stroke-width:5.204813;stroke-linecap:butt;stroke-linejoin:miter;stroke-miterlimit:4;stroke-dasharray:none;stroke-opacity:1"
           d="m 1994.4085,109.12535 0,0 c 46.5837,80.68533 -23.2919,282.39867 -128.1052,463.94067 -69.1768,119.81775 -161.4125,226.32236 -222.903,226.32236 l 0,0 c -106.4583,0 -305.0719,-319.23569 -316.6282,-474.01757 25.5147,-6.44566 54.1178,-11.51388 84.391,-15.09865 41.6685,97.27709 108.8574,203.53046 172.6847,268.86646 128.3275,-87.49761 305.3929,-418.98842 252.1761,-511.162781 -7.1197,-12.331661 -20.0098,-23.235501 -37.3342,-32.711511 -57.4882,-31.4446409 -163.8032,-47.166962 -270.1182,-47.166962 l 0,0 m 0,0 c 209.6267,-10e-6 419.2533,40.342651 465.837,121.027984"
           inkscape:connector-curvature="0"
           sodipodi:nodetypes="ccccccccsscccc"
           inkscape:export-xdpi="92.160004"
           inkscape:export-ydpi="92.160004" />
      </g>
      <g
         style="font-style:normal;font-weight:normal;font-size:40px;line-height:125%;font-family:Sans;letter-spacing:0px;word-spacing:0px;fill:#000000;fill-opacity:1;stroke:none;stroke-width:1px;stroke-linecap:butt;stroke-linejoin:miter;stroke-opacity:1"
         id="text4265">
        <path
           d="m 103.91762,47.627045 q 0,-1.09375 0.37597,-1.914063 0.41016,-0.854492 1.05957,-1.401367 0.64942,-0.546875 1.46973,-0.820313 0.82031,-0.273437 1.67481,-0.273437 0.85449,0 1.6748,0.273437 0.82031,0.273438 1.46973,0.820313 0.64941,0.546875 1.02539,1.401367 0.41015,0.820313 0.41015,1.914063 l 0,40.366211 q 0,1.09375 -0.41015,1.914062 -0.37598,0.820313 -1.02539,1.367188 -0.64942,0.546875 -1.50391,0.820312 -0.82031,0.273438 -1.6748,0.273438 -0.8545,0 -1.67481,-0.273438 -0.82031,-0.273437 -1.46973,-0.820312 -0.61523,-0.546875 -1.02539,-1.367188 -0.37597,-0.820312 -0.37597,-1.914062 l 0,-40.366211 z"
           style="font-style:normal;font-variant:normal;font-weight:bold;font-stretch:normal;font-size:70px;font-family:Nunito;-inkscape-font-specification:'Nunito Bold';letter-spacing:-2.5px"
           id="path4141"
           inkscape:connector-curvature="0" />
        <path
           d="m 122.40395,48.754974 q 0,-1.298828 0.37597,-2.290039 0.41016,-1.02539 1.09375,-1.708984 0.6836,-0.717774 1.53809,-1.05957 0.88867,-0.375977 1.87988,-0.375977 1.29883,0 2.56348,0.649414 1.29883,0.649414 2.3584,1.982422 l 23.8916,34.418945 0,-33.188476 q 0,-0.957032 0.34179,-1.674805 0.3418,-0.751953 0.88868,-1.230469 0.58105,-0.478515 1.29882,-0.717773 0.75196,-0.273438 1.50391,-0.273438 0.75195,0 1.46973,0.239258 0.71777,0.239258 1.26465,0.751953 0.58105,0.478516 0.92285,1.230469 0.34179,0.717773 0.34179,1.674805 l 0,39.819336 q 0,1.298828 -0.41015,2.324218 -0.41016,0.991211 -1.09375,1.674805 -0.6836,0.683594 -1.60645,1.05957 -0.88867,0.375977 -1.87988,0.375977 -1.26465,0 -2.56348,-0.615234 -1.26465,-0.649414 -2.3584,-2.016602 l -23.75488,-34.248047 0,33.017578 q 0,0.957032 -0.37597,1.674805 -0.3418,0.717773 -0.92286,1.230469 -0.54687,0.478515 -1.29882,0.717773 -0.71778,0.239258 -1.46973,0.239258 -0.75195,0 -1.46973,-0.239258 -0.71777,-0.239258 -1.29883,-0.717773 -0.54687,-0.478516 -0.88867,-1.196289 -0.34179,-0.717774 -0.34179,-1.708985 l 0,-39.819336 z"
           style="font-style:normal;font-variant:normal;font-weight:bold;font-stretch:normal;font-size:70px;font-family:Nunito;-inkscape-font-specification:'Nunito Bold';letter-spacing:-2.5px"
           id="path4143"
           inkscape:connector-curvature="0" />
        <path
           d="m 194.62074,72.407318 0,15.620117 q 0,1.09375 -0.41015,1.948242 -0.37598,0.820313 -1.02539,1.401368 -0.64942,0.546875 -1.50391,0.820312 -0.82031,0.273438 -1.67481,0.273438 -0.85449,0 -1.6748,-0.273438 -0.82031,-0.273437 -1.46973,-0.820312 -0.64941,-0.581055 -1.05957,-1.401368 -0.37597,-0.854492 -0.37597,-1.948242 l 0,-15.449218 -14.83399,-23.583985 q -0.27344,-0.478515 -0.37597,-0.922851 -0.10254,-0.444336 -0.13672,-0.854493 0,-0.820312 0.41015,-1.538086 0.41016,-0.717773 1.09375,-1.230468 0.6836,-0.512696 1.53809,-0.786133 0.85449,-0.307617 1.74316,-0.307617 1.16211,0 2.1875,0.581054 1.02539,0.546875 1.60645,1.811524 l 11.79199,20.336914 0.13672,0 11.89453,-20.507813 q 0.54688,-1.196289 1.50391,-1.708984 0.95703,-0.512695 2.05078,-0.512695 0.78613,0 1.53808,0.239258 0.75196,0.239257 1.33301,0.683593 0.58106,0.444336 0.92285,1.059571 0.37598,0.615234 0.37598,1.367187 0,0.375977 -0.10254,0.820313 -0.10254,0.444336 -0.37598,0.888671 l -15.10742,23.994141 z"
           style="font-style:normal;font-variant:normal;font-weight:bold;font-stretch:normal;font-size:70px;font-family:Nunito;-inkscape-font-specification:'Nunito Bold';letter-spacing:-2.5px"
           id="path4145"
           inkscape:connector-curvature="0" />
        <path
           d="m 220.86586,92.436615 q -0.92285,0 -1.77734,-0.341797 -0.82032,-0.375976 -1.46973,-0.991211 -0.61523,-0.615234 -0.99121,-1.435547 -0.37598,-0.820312 -0.37598,-1.777343 l 0,-40.126954 q 0,-1.09375 0.37598,-1.914062 0.41015,-0.854492 1.05957,-1.401367 0.64941,-0.546875 1.46973,-0.820313 0.82031,-0.273437 1.70898,-0.273437 0.85449,0 1.6748,0.273437 0.82032,0.273438 1.46973,0.820313 0.64942,0.546875 1.02539,1.401367 0.41016,0.820312 0.41016,1.914062 l 0,37.768555 19.75586,0 q 0.85449,0 1.5039,0.307617 0.64942,0.307617 1.05957,0.786133 0.44434,0.478516 0.64942,1.09375 0.23926,0.615234 0.23926,1.264649 0,0.649414 -0.23926,1.264648 -0.20508,0.615234 -0.64942,1.12793 -0.41015,0.478515 -1.05957,0.786132 -0.64941,0.273438 -1.5039,0.273438 l -24.33594,0 z"
           style="font-style:normal;font-variant:normal;font-weight:bold;font-stretch:normal;font-size:70px;font-family:Nunito;-inkscape-font-specification:'Nunito Bold';letter-spacing:-2.5px"
           id="path4147"
           inkscape:connector-curvature="0" />
      </g>
    </g>
  </g>
</svg>
